<svg width="800" height="800" version="1.1" xmlns="http://www.w3.org/2000/svg" desc="Created with imagetracer.js version 0.2.1" ><path fill="rgb(252,252,252)" stroke="rgb(252,252,252)" stroke-width="1" opacity="0.5490196078431373" d="M 456.5 0 L 475 0.5 L 460.5 2 L 456.5 1 L 456.5 0 Z " /><path fill="rgb(252,252,252)" stroke="rgb(252,252,252)" stroke-width="1" opacity="0.5490196078431373" d="M 455 10 L 468 11.5 L 462.5 12 L 457.5 11 L 455 12 L 455 10 Z " /><path fill="rgb(252,252,252)" stroke="rgb(252,252,252)" stroke-width="1" opacity="0.5490196078431373" d="M 399.5 26 L 782.5 408 L 784 408 Q 782.9 410.7 785.5 410 L 800 422.5 L 799.5 424 L 777 404.5 L 400.5 27 L 283.5 143 L 283 84 L 117 84 L 117 309.5 L 28 398.5 L 23 406 L 16 410.5 L 14.5 413 L 0.5 423 L 3.5 419 L 16 409.5 Q 15.3 407.3 17.5 408 L 24 402.5 L 116 309.5 L 116 83 L 284 83 L 284 140.5 L 399.5 26 Z " /><path fill="rgb(252,252,252)" stroke="rgb(252,252,252)" stroke-width="1" opacity="0.5490196078431373" d="M 15.5 109 Q 18.1 108.3 17 111 L 14 110.5 L 15.5 109 Z " /><path fill="rgb(252,252,252)" stroke="rgb(252,252,252)" stroke-width="1" opacity="0.5490196078431373" d="M 399.5 121 L 662 382.5 L 661.5 384 L 650.5 384 L 650.5 383 L 661 382.5 L 399.5 122 L 217.5 304 L 216 304 L 216.5 150 L 217.5 303 L 399.5 121 Z " /><path fill="rgb(252,252,252)" stroke="rgb(252,252,252)" stroke-width="1" opacity="0.5490196078431373" d="M 183.5 150 L 184 337.5 L 139.5 383 L 150 383.5 L 138 384 L 138 382.5 L 183 337.5 L 183.5 150 Z " /><path fill="rgb(252,252,252)" stroke="rgb(252,252,252)" stroke-width="1" opacity="0.5490196078431373" d="M 783.5 172 L 784 186.5 L 785 187.5 L 783 188 L 783.5 172 Z " /><path fill="rgb(252,252,252)" stroke="rgb(252,252,252)" stroke-width="1" opacity="0.5490196078431373" d="M 0 195 L 2 195.5 L 0 196.5 L 0 195 Z " /><path fill="rgb(252,252,252)" stroke="rgb(252,252,252)" stroke-width="1" opacity="0.5490196078431373" d="M 15.5 199 Q 18.1 198.3 17 201 L 12.5 202 L 6.5 206 L 7 204.5 L 9.5 201 L 15.5 199 Z " /><path fill="rgb(252,252,252)" stroke="rgb(252,252,252)" stroke-width="1" opacity="0.5490196078431373" d="M 11.5 213 L 12 214.5 L 8 216 Q 6.8 213 10.5 214 L 11.5 213 Z " /><path fill="rgb(252,252,252)" stroke="rgb(252,252,252)" stroke-width="1" opacity="0.5490196078431373" d="M 797 268 Q 800.8 266.5 800 269.5 L 800 271.5 L 799.5 276 L 797 268 Z " /><path fill="rgb(252,252,252)" stroke="rgb(252,252,252)" stroke-width="1" opacity="0.5490196078431373" d="M 783 339 Q 788.2 337.3 787 341 Q 781.8 342.7 783 339 Z " /><path fill="rgb(252,252,252)" stroke="rgb(252,252,252)" stroke-width="1" opacity="0.5490196078431373" d="M 783.5 364 L 784 375.5 L 783 375.5 L 783.5 364 Z " /><path fill="rgb(252,252,252)" stroke="rgb(252,252,252)" stroke-width="1" opacity="0.5490196078431373" d="M 16.5 373 L 17 381.5 L 16 381.5 L 16.5 373 Z " /><path fill="rgb(252,252,252)" stroke="rgb(252,252,252)" stroke-width="1" opacity="0.5490196078431373" d="M 794.5 406 L 800 407 L 799.5 410 Q 794.9 408.8 794.5 406 Z " /><path fill="rgb(252,252,252)" stroke="rgb(252,252,252)" stroke-width="1" opacity="0.5490196078431373" d="M 0.5 450 L 17 450.5 L 0.5 451 L 0.5 450 Z " /><path fill="rgb(252,252,252)" stroke="rgb(252,252,252)" stroke-width="1" opacity="0.5490196078431373" d="M 83.5 450 L 84 749.5 L 83 749.5 L 83.5 450 Z " /><path fill="rgb(252,252,252)" stroke="rgb(252,252,252)" stroke-width="1" opacity="0.5490196078431373" d="M 716.5 450 L 717 749.5 L 716 749.5 L 716.5 450 Z " /><path fill="rgb(252,252,252)" stroke="rgb(252,252,252)" stroke-width="1" opacity="0.5490196078431373" d="M 783.5 450 L 792 450.5 L 783.5 451 L 783.5 450 Z " /><path fill="rgb(252,252,252)" stroke="rgb(252,252,252)" stroke-width="1" opacity="0.5490196078431373" d="M 797.5 450 L 800 450.5 L 797.5 451 L 797.5 450 Z " /><path fill="rgb(252,252,252)" stroke="rgb(252,252,252)" stroke-width="1" opacity="0.5490196078431373" d="M 283 483 L 517 483 L 517 683 L 649.5 683 L 649.5 684 L 517.5 684 L 516 682.5 L 516 484 L 284 484 L 284 682.5 L 282.5 684 L 150 683.5 L 283 683 L 283 483 Z " /><path fill="rgb(255,255,255)" stroke="rgb(255,255,255)" stroke-width="1" opacity="1" d="M 399.5 27 L 777 403.5 L 780.5 408 L 800 424.5 L 800 449.5 L 799.5 450 L 716.5 450 L 716 450.5 L 716 750 L 450 750 L 450 550 L 350 550 L 350 750 L 84 750 L 84 450.5 L 83.5 450 L 0.5 450 L 0 449.5 L 0 423.5 L 16 411.5 L 17.5 409 L 23 406 L 28 398.5 L 117 309.5 L 117 84 L 283 84 L 283 142.5 L 399.5 27 Z M 400 121 L 217 303 L 217 151 L 217 150 L 183 150 L 183 338 L 138 383 L 139 384 L 150 384 L 150 385 L 150 684 L 283 684 L 284 683 L 284 484 L 516 484 L 516 683 L 518 684 L 650 684 L 650 385 L 651 384 L 662 384 L 662 383 L 400 121 Z " /><path fill="rgb(0,0,0)" stroke="rgb(0,0,0)" stroke-width="1" opacity="0" d="M 0 0 L 455.5 0 Q 458.8 2.7 465.5 2 L 475.5 0 L 800 0 L 800 267.5 L 797 268 L 797 269.5 L 800 276.5 L 800 407 L 794.5 406 L 795.5 408 L 800 410.5 L 799.5 422 L 784 410 Q 785.1 407.3 782.5 408 L 399.5 26 L 284 140.5 L 284 83 L 116 83 L 116 309.5 L 20.5 406 L 16 408 L 12.5 413 L 9.5 414 L 0.5 422 L 0 197.5 L 1.5 195 L 0 194.5 L 0 0 Z M 455 10 L 455 12 L 458 11 L 463 12 L 468 12 L 455 10 Z M 16 109 L 14 111 L 17 111 Q 18 108 16 109 Z M 784 172 L 783 188 L 785 188 L 784 187 L 784 172 Z M 16 199 L 10 201 L 7 205 L 7 206 L 13 202 L 17 201 Q 18 198 16 199 Z M 12 213 L 11 214 Q 7 213 8 216 L 12 215 L 12 213 Z M 783 339 Q 782 343 787 341 Q 788 337 783 339 Z M 784 364 L 783 376 L 784 376 L 784 364 Z M 17 373 L 16 382 L 17 382 L 17 373 Z " /><path fill="rgb(0,0,0)" stroke="rgb(0,0,0)" stroke-width="1" opacity="0" d="M 399.5 122 L 661 382.5 L 650 383 L 650 683 L 517 683 L 517 483 L 283 483 L 283 683 L 150 683 L 150 383.5 L 149.5 383 L 139.5 383 L 184 337.5 L 184 150.5 L 184.5 150 L 216 150 L 216 303.5 L 217.5 304 L 399.5 122 Z " /><path fill="rgb(0,0,0)" stroke="rgb(0,0,0)" stroke-width="1" opacity="0" d="M 17.5 450 L 82.5 450 L 83 450.5 L 83 750 L 350 750 L 350 550 L 450 550 L 450 750 L 717 750 L 717 450.5 L 717.5 450 L 782.5 450 L 783.5 451 L 791.5 451 L 796.5 450 L 800 451 L 800 800 L 2.5 800 L 0 799 L 0 451.5 L 0.5 451 L 16.5 451 L 17.5 450 Z " /></svg>